<?xml version="1.0" standalone="no"?>
<!DOCTYPE svg PUBLIC "-//W3C//DTD SVG 20010904//EN"
 "http://www.w3.org/TR/2001/REC-SVG-20010904/DTD/svg10.dtd">
<svg version="1.0" xmlns="http://www.w3.org/2000/svg"
 width="400.000000pt" height="300.000000pt" viewBox="0 0 400.000000 300.000000"
 preserveAspectRatio="xMidYMid meet">

<g transform="translate(0.000000,300.000000) scale(0.100000,-0.100000)"
fill="#000000" stroke="none">
<path d="M1930 2472 c-19 -10 -43 -30 -53 -44 -26 -35 -33 -108 -14 -147 l15
-30 -52 -17 c-181 -59 -306 -182 -384 -378 -14 -35 -17 -108 -22 -511 l-5
-470 -153 -3 -153 -3 3 -40 3 -40 66 -5 c36 -2 85 -10 108 -19 54 -19 130 -74
156 -114 l20 -31 535 0 535 0 20 31 c26 40 102 95 156 114 23 9 72 17 108 19
l66 5 3 40 3 40 -153 3 -153 3 -5 470 c-5 403 -8 476 -22 511 -78 196 -203
319 -385 378 l-51 17 14 27 c30 58 9 143 -46 182 -45 32 -115 37 -160 12z
m125 -77 c31 -30 32 -73 5 -103 -38 -40 -93 -37 -127 7 -35 45 7 121 67 121
19 0 40 -9 55 -25z m64 -220 c177 -42 322 -183 375 -364 14 -46 16 -121 16
-498 0 -436 0 -443 -20 -443 -20 0 -20 7 -20 398 0 218 -5 431 -10 471 -13 99
-55 187 -125 260 -56 58 -159 123 -182 114 -25 -9 -12 -33 30 -54 104 -53 182
-145 217 -258 18 -56 20 -92 20 -336 0 -263 -1 -273 -20 -278 -13 -3 -21 1
-25 15 -6 16 -9 17 -22 7 -11 -10 -19 -10 -33 -1 -16 9 -20 8 -25 -7 -10 -33
-45 -15 -45 23 0 28 -7 36 -55 65 l-55 33 0 84 c0 68 -3 84 -15 84 -12 0 -15
14 -15 64 0 53 -3 64 -18 68 -15 4 -23 39 -52 222 -19 119 -37 216 -40 216 -3
0 -21 -97 -40 -216 -29 -183 -37 -218 -52 -222 -15 -4 -18 -15 -18 -68 0 -50
-3 -64 -15 -64 -12 0 -15 -16 -15 -84 l0 -84 -55 -33 c-48 -29 -55 -37 -55
-65 0 -38 -35 -55 -45 -22 -6 16 -9 17 -22 7 -11 -10 -19 -10 -33 -1 -16 9
-20 8 -25 -7 -4 -13 -12 -17 -25 -14 -15 4 -20 0 -20 -15 0 -12 -9 -22 -22
-25 -18 -5 -19 -8 -8 -21 10 -13 10 -19 -1 -32 -11 -13 -10 -17 4 -26 12 -6
16 -16 12 -29 -5 -15 -2 -19 14 -19 14 0 21 -6 21 -20 0 -23 10 -26 28 -8 9 9
12 -3 12 -55 l0 -67 -75 0 -75 0 0 443 c0 377 2 452 16 498 79 270 344 427
613 364z m-169 -635 c0 -38 -4 -50 -15 -50 -11 0 -15 11 -15 43 0 24 3 47 7
50 16 17 23 3 23 -43z m60 0 c0 -27 -4 -50 -10 -50 -5 0 -10 23 -10 50 0 28 5
50 10 50 6 0 10 -22 10 -50z m10 -95 c17 -20 5 -45 -20 -45 -11 0 -23 7 -26
15 -6 15 11 45 26 45 4 0 13 -7 20 -15z m64 -142 l81 -48 -82 -3 c-46 -2 -120
-2 -165 0 l-83 3 80 47 c44 26 82 48 84 48 2 0 41 -21 85 -47z m-224 -254 c0
-90 -3 -109 -15 -109 -12 0 -15 19 -15 115 0 98 2 114 15 109 12 -5 15 -27 15
-115z m98 -27 c2 -68 0 -82 -13 -82 -12 0 -15 15 -15 86 0 64 3 85 13 82 8 -3
13 -32 15 -86z m112 -33 c0 -37 -4 -49 -15 -49 -12 0 -15 13 -15 61 0 54 2 60
15 49 10 -8 15 -30 15 -61z m-320 -44 l0 -75 -30 0 -30 0 0 67 c0 52 3 64 12
55 18 -18 28 -15 28 8 0 11 5 20 10 20 6 0 10 -32 10 -75z m520 55 c0 -23 10
-26 28 -8 9 9 12 -3 12 -55 l0 -67 -30 0 -30 0 0 75 c0 43 4 75 10 75 6 0 10
-9 10 -20z m150 -55 l0 -75 -30 0 -30 0 0 67 c0 52 3 64 12 55 18 -18 28 -15
28 8 0 11 5 20 10 20 6 0 10 -32 10 -75z m-252 22 c2 -19 -1 -27 -12 -27 -11
0 -16 10 -16 31 0 38 24 35 28 -4z m-160 -154 c3 -10 -66 -13 -322 -13 -179 0
-326 4 -326 8 0 5 3 12 7 15 4 4 148 6 321 5 242 -2 316 -6 320 -15z"/>
</g>
</svg>
